<svg width="65" height="49" viewBox="0 0 65 49" fill="none" xmlns="http://www.w3.org/2000/svg">
<g filter="url(#filter0_dd_20_328)">
<rect x="9.18842" y="4.70605" width="46.6143" height="30.0304" rx="5.37857" fill="white"/>
<rect x="9.07636" y="4.594" width="46.8384" height="30.2545" rx="5.49062" stroke="#D6DCE5" stroke-width="0.224107"/>
<path d="M31.4822 23.3204H30.4338V15.1621H33.2132C33.9177 15.1621 34.5183 15.3969 35.0098 15.8665C35.5122 16.3362 35.7634 16.9095 35.7634 17.5866C35.7634 18.2802 35.5122 18.8535 35.0098 19.3177C34.5238 19.7818 33.9231 20.0112 33.2132 20.0112H31.4822V23.3204ZM31.4822 16.1669V19.0119H33.2351C33.6501 19.0119 33.9996 18.8699 34.2726 18.5914C34.5511 18.3129 34.6931 17.9744 34.6931 17.5921C34.6931 17.2153 34.5511 16.8822 34.2726 16.6037C33.9996 16.3143 33.6556 16.1723 33.2351 16.1723H31.4822V16.1669Z" fill="#3C4043"/>
<path d="M38.5045 17.5539C39.2799 17.5539 39.8915 17.7614 40.3393 18.1764C40.7871 18.5914 41.0109 19.1593 41.0109 19.8801V23.3204H40.0116V22.5449H39.968C39.5366 23.1838 38.9577 23.5006 38.2369 23.5006C37.6199 23.5006 37.1066 23.3204 36.6916 22.9545C36.2766 22.5886 36.0691 22.1354 36.0691 21.5893C36.0691 21.0105 36.2875 20.5518 36.7243 20.2132C37.1612 19.8692 37.7455 19.6999 38.4717 19.6999C39.0943 19.6999 39.6076 19.8146 40.0062 20.044V19.8037C40.0062 19.4378 39.8642 19.132 39.5748 18.8754C39.2854 18.6187 38.9468 18.4931 38.5591 18.4931C37.9748 18.4931 37.5107 18.7388 37.1721 19.2358L36.2493 18.6569C36.7571 17.9197 37.5107 17.5539 38.5045 17.5539ZM37.1503 21.6057C37.1503 21.8787 37.2649 22.1081 37.4997 22.2883C37.7291 22.4685 38.0021 22.5613 38.3134 22.5613C38.7557 22.5613 39.1489 22.3975 39.4929 22.0699C39.8369 21.7422 40.0116 21.36 40.0116 20.9177C39.684 20.661 39.2308 20.53 38.6465 20.53C38.2206 20.53 37.8656 20.6337 37.5817 20.8357C37.2922 21.0487 37.1503 21.3054 37.1503 21.6057Z" fill="#3C4043"/>
<path d="M46.7119 17.7341L43.2171 25.7723H42.1359L43.4355 22.96L41.1311 17.7341H42.2724L43.9324 21.7423H43.9543L45.5706 17.7341H46.7119Z" fill="#3C4043"/>
<path d="M27.3119 19.3504C27.3119 19.0086 27.2813 18.6815 27.2245 18.367H22.8298V20.169L25.3608 20.1695C25.2581 20.7691 24.9277 21.2803 24.4215 21.621V22.7901H25.9281C26.8078 21.9759 27.3119 20.7724 27.3119 19.3504Z" fill="#4285F4"/>
<path d="M24.4221 21.6211C24.0027 21.9039 23.4626 22.0694 22.8308 22.0694C21.6104 22.0694 20.575 21.247 20.2043 20.1385H18.6502V21.3442C19.4201 22.8721 21.0026 23.9205 22.8308 23.9205C24.0944 23.9205 25.156 23.505 25.9287 22.7896L24.4221 21.6211Z" fill="#34A853"/>
<path d="M20.0579 19.244C20.0579 18.9327 20.1097 18.6318 20.2042 18.3489V17.1432H18.6501C18.3318 17.775 18.1526 18.4882 18.1526 19.244C18.1526 19.9997 18.3323 20.7129 18.6501 21.3447L20.2042 20.139C20.1097 19.8561 20.0579 19.5552 20.0579 19.244Z" fill="#FABB05"/>
<path d="M22.8308 16.4181C23.5205 16.4181 24.1381 16.6556 24.6257 17.1198L25.9609 15.7857C25.15 15.0305 24.0928 14.5669 22.8308 14.5669C21.0032 14.5669 19.4201 15.6153 18.6501 17.1432L20.2042 18.3489C20.575 17.2404 21.6104 16.4181 22.8308 16.4181Z" fill="#E94235"/>
</g>
<defs>
<filter id="filter0_dd_20_328" x="8.58307e-06" y="-0.000209332" width="64.9911" height="48.4071" filterUnits="userSpaceOnUse" color-interpolation-filters="sRGB">
<feFlood flood-opacity="0" result="BackgroundImageFix"/>
<feColorMatrix in="SourceAlpha" type="matrix" values="0 0 0 0 0 0 0 0 0 0 0 0 0 0 0 0 0 0 127 0" result="hardAlpha"/>
<feOffset dy="0.448214"/>
<feGaussianBlur stdDeviation="2.24107"/>
<feColorMatrix type="matrix" values="0 0 0 0 0.717647 0 0 0 0 0.717647 0 0 0 0 0.717647 0 0 0 0.08 0"/>
<feBlend mode="normal" in2="BackgroundImageFix" result="effect1_dropShadow_20_328"/>
<feColorMatrix in="SourceAlpha" type="matrix" values="0 0 0 0 0 0 0 0 0 0 0 0 0 0 0 0 0 0 127 0" result="hardAlpha"/>
<feOffset dy="4.48214"/>
<feGaussianBlur stdDeviation="4.48214"/>
<feColorMatrix type="matrix" values="0 0 0 0 0.717647 0 0 0 0 0.717647 0 0 0 0 0.717647 0 0 0 0.08 0"/>
<feBlend mode="normal" in2="effect1_dropShadow_20_328" result="effect2_dropShadow_20_328"/>
<feBlend mode="normal" in="SourceGraphic" in2="effect2_dropShadow_20_328" result="shape"/>
</filter>
</defs>
</svg>
