<svg width="65" height="49" viewBox="0 0 65 49" fill="none" xmlns="http://www.w3.org/2000/svg">
<g filter="url(#filter0_dd_20_320)">
<rect x="9.18842" y="4.70605" width="46.6143" height="30.0304" rx="5.37857" fill="white"/>
<rect x="9.07636" y="4.594" width="46.8384" height="30.2545" rx="5.49062" stroke="#D6DCE5" stroke-width="0.224107"/>
<path d="M32.2106 14.827L30.0364 24.9906H27.4072L29.5818 14.827H32.2106ZM43.2723 21.3897L44.6565 17.5729L45.453 21.3897H43.2723ZM46.2057 24.9906H48.6376L46.5155 14.827H44.2708C43.7664 14.827 43.3408 15.1204 43.1513 15.5727L39.2069 24.9906H41.9679L42.516 23.4729H45.8892L46.2057 24.9906ZM39.3439 21.6721C39.3552 18.9896 35.6343 18.842 35.66 17.6437C35.6677 17.2786 36.0155 16.8913 36.7749 16.7919C37.1523 16.7427 38.1897 16.705 39.3677 17.2471L39.829 15.0918C39.1962 14.8621 38.3821 14.6411 37.3694 14.6411C34.7709 14.6411 32.9418 16.0227 32.9263 18.0011C32.9099 19.4641 34.232 20.2805 35.2283 20.7669C36.2525 21.2652 36.5967 21.5843 36.5922 22.0298C36.5855 22.7121 35.7752 23.0126 35.0192 23.0245C33.6971 23.0454 32.9299 22.6677 32.3184 22.3827L31.842 24.6097C32.456 24.8918 33.59 25.137 34.7664 25.1495C37.528 25.1495 39.3349 23.7849 39.3439 21.6721ZM28.4537 14.827L24.194 24.9906H21.4143L19.3182 16.8794C19.1908 16.3798 19.0802 16.1971 18.6932 15.9864C18.0617 15.6438 17.0179 15.3218 16.0995 15.1223L16.1622 14.827H20.6358C21.2059 14.827 21.7189 15.2066 21.8483 15.8632L22.9555 21.7448L25.6914 14.827H28.4537Z" fill="#1434CB"/>
</g>
<defs>
<filter id="filter0_dd_20_320" x="8.58307e-06" y="-0.000209332" width="64.9911" height="48.4071" filterUnits="userSpaceOnUse" color-interpolation-filters="sRGB">
<feFlood flood-opacity="0" result="BackgroundImageFix"/>
<feColorMatrix in="SourceAlpha" type="matrix" values="0 0 0 0 0 0 0 0 0 0 0 0 0 0 0 0 0 0 127 0" result="hardAlpha"/>
<feOffset dy="0.448214"/>
<feGaussianBlur stdDeviation="2.24107"/>
<feColorMatrix type="matrix" values="0 0 0 0 0.717647 0 0 0 0 0.717647 0 0 0 0 0.717647 0 0 0 0.08 0"/>
<feBlend mode="normal" in2="BackgroundImageFix" result="effect1_dropShadow_20_320"/>
<feColorMatrix in="SourceAlpha" type="matrix" values="0 0 0 0 0 0 0 0 0 0 0 0 0 0 0 0 0 0 127 0" result="hardAlpha"/>
<feOffset dy="4.48214"/>
<feGaussianBlur stdDeviation="4.48214"/>
<feColorMatrix type="matrix" values="0 0 0 0 0.717647 0 0 0 0 0.717647 0 0 0 0 0.717647 0 0 0 0.08 0"/>
<feBlend mode="normal" in2="effect1_dropShadow_20_320" result="effect2_dropShadow_20_320"/>
<feBlend mode="normal" in="SourceGraphic" in2="effect2_dropShadow_20_320" result="shape"/>
</filter>
</defs>
</svg>
